<?xml version="1.0" encoding="UTF-8"?>
<svg version="1.1" xmlns="http://www.w3.org/2000/svg" width="640" height="636">
<path d="M0 0 C0.80483322 -0.00979385 1.60966644 -0.01958771 2.43888855 -0.02967834 C51.4413744 -0.50272134 98.19115519 10.82060785 138.28515625 40.23828125 C138.85459961 40.65368164 139.42404297 41.06908203 140.01074219 41.49707031 C186.30015431 75.6475595 216.6216781 126.6128265 225.84472656 183.30419922 C234.34877302 239.95698768 220.57798585 298.00159176 186.87084961 344.42871094 C181.8447138 351.22474904 176.4820728 357.56235863 170.66015625 363.6875 C168.26560462 366.19186001 168.26560462 366.19186001 166.203125 368.86328125 C164.45152555 371.03226794 162.72059911 372.75718383 160.59765625 374.55078125 C158.46630271 376.36594498 156.34978109 378.17859831 154.29296875 380.078125 C111.28683373 419.75737033 53.5376213 435.20722827 -3.74841309 433.32226562 C-57.34134854 431.03336255 -105.45615276 405.44164228 -143.71484375 369.23828125 C-144.39546875 368.60019531 -145.07609375 367.96210938 -145.77734375 367.3046875 C-150.90389246 362.35614395 -155.32910158 356.84306358 -159.71484375 351.23828125 C-160.14313477 350.69171875 -160.57142578 350.14515625 -161.01269531 349.58203125 C-195.99589535 304.5414811 -211.2117469 246.85620011 -204.94091797 190.29833984 C-199.36311205 148.63158662 -182.73569159 107.87472236 -154.71484375 76.23828125 C-154.02519531 75.44035156 -153.33554688 74.64242187 -152.625 73.8203125 C-114.59664871 30.56564168 -58.4232674 0.59351197 0 0 Z M-23.71484375 118.23828125 C-52.98515478 150.66376677 -63.34076134 188.30007056 -61.71484375 231.23828125 C-59.77783584 256.92638617 -48.68377458 283.18427509 -32.71484375 303.23828125 C-32.3089502 303.75100586 -31.90305664 304.26373047 -31.48486328 304.79199219 C-7.22541299 335.19619597 25.69503266 352.09701698 63.859375 357.76953125 C66.67956626 358.04654867 69.45219391 358.18409891 72.28515625 358.23828125 C73.496875 358.27695312 74.70859375 358.315625 75.95703125 358.35546875 C111.98061682 359.17287407 146.13821812 346.96479177 173.28515625 323.23828125 C174.06246094 322.59375 174.83976563 321.94921875 175.640625 321.28515625 C181.65157456 316.19498898 186.46230134 310.44508583 191.28515625 304.23828125 C192.38150391 302.90023437 192.38150391 302.90023437 193.5 301.53515625 C216.5898645 272.48007192 223.97394292 235.45012849 221.01171875 199.1015625 C216.22587234 160.95023972 195.97231981 126.51478061 165.88867188 102.77148438 C108.21124486 59.43479166 26.44515575 67.35828175 -23.71484375 118.23828125 Z " fill="#FEFDFC" transform="translate(308.71484375,101.76171875)"/>
<path d="M0 0 C5.59798805 4.84373282 8.44409386 10.53422064 9.3515625 17.82421875 C9.76399697 26.30083253 7.82572083 32.67669074 2.16796875 39.0703125 C-3.49874432 44.41289405 -9.09258537 47.04837927 -16.875 47.4375 C-24.17092124 47.16852594 -30.47607566 44.76247328 -35.875 39.8125 C-41.94503333 33.02496864 -43.76908127 26.27347244 -43.44140625 17.21484375 C-42.35626318 9.31154509 -38.431607 3.33150987 -32.23046875 -1.58984375 C-21.63293423 -8.28986119 -10.13611507 -6.77491629 0 0 Z " fill="#FEFDFC" transform="translate(361,295)"/>
<path d="M0 0 C5.82603901 3.39613112 10.62316668 8.31437352 13.0234375 14.734375 C14.81698729 23.02586748 14.48275228 31.33922406 10.1875 38.74609375 C6.04453666 44.12619198 0.27826831 48.741335 -6.5 49.9375 C-14.9555349 50.8236696 -21.49616001 49.95409128 -28.5 44.9375 C-33.94533639 40.02642303 -37.97667117 34.60820979 -38.8125 27.1484375 C-39.15162538 18.77627958 -37.1836078 13.15459797 -32.75 6.1875 C-24.0492508 -2.5132492 -11.41340866 -5.29846217 0 0 Z " fill="#FEFDFC" transform="translate(466.5,292.0625)"/>
</svg>
